<?xml version="1.0" standalone="no"?>
<!DOCTYPE svg PUBLIC "-//W3C//DTD SVG 20010904//EN"
 "http://www.w3.org/TR/2001/REC-SVG-20010904/DTD/svg10.dtd">
<svg version="1.0" xmlns="http://www.w3.org/2000/svg"
 width="418.000000pt" height="60.000000pt" viewBox="0 0 418.000000 60.000000"
 preserveAspectRatio="xMidYMid meet">

<g transform="translate(0.000000,60.000000) scale(0.100000,-0.100000)"
fill="#000000" stroke="none">
<path d="M2924 575 c-19 -29 -14 -81 17 -179 18 -60 18 -61 -2 -82 -19 -20
-86 -44 -122 -44 -8 0 -20 14 -26 32 -15 43 -50 78 -77 78 -13 0 -34 -14 -49
-32 -70 -84 -161 -101 -195 -38 -8 15 -7 26 6 44 21 34 22 128 0 161 -19 28
-34 31 -62 11 -16 -13 -19 -26 -17 -98 1 -46 3 -94 5 -108 3 -21 -3 -27 -38
-39 -49 -17 -88 -9 -110 23 -14 23 -14 27 1 50 22 34 23 127 1 161 -19 28 -34
31 -62 11 -16 -13 -19 -26 -17 -98 1 -46 3 -94 5 -107 3 -21 -3 -26 -39 -37
-55 -16 -86 -9 -73 16 7 13 7 21 0 25 -15 9 -38 -12 -42 -38 -5 -35 -34 -28
-30 7 5 47 21 70 38 55 8 -6 14 -7 14 -1 0 5 -6 14 -13 20 -19 16 -55 -11 -73
-53 -10 -24 -21 -34 -45 -39 -51 -10 -56 -8 -68 26 -15 42 -49 78 -75 78 -12
0 -39 -19 -62 -42 -46 -50 -86 -73 -109 -65 -8 4 -24 27 -35 53 -12 26 -25 44
-33 42 -6 -2 -23 -25 -36 -51 -12 -26 -27 -45 -31 -42 -4 2 -10 23 -14 45 -5
32 -10 41 -24 38 -10 -2 -17 -13 -17 -26 0 -30 -30 -52 -69 -52 -37 0 -49 7
-64 37 -21 39 -122 20 -122 -23 0 -15 -39 -28 -67 -22 -15 3 -17 11 -15 44 3
37 1 42 -25 53 -45 18 -89 19 -84 1 14 -53 13 -64 -4 -77 -54 -39 -143 8 -131
69 3 17 6 52 6 79 l0 48 52 4 53 3 -51 2 c-50 2 -51 3 -67 42 -26 66 -62 65
-76 -1 -5 -24 -14 -35 -31 -40 -25 -7 -25 -7 3 -8 25 -1 27 -4 27 -40 0 -21 7
-58 15 -81 18 -52 12 -62 -52 -84 -67 -23 -79 -21 -92 16 -15 43 -49 78 -76
78 -12 0 -37 -16 -56 -37 -19 -21 -45 -46 -59 -55 -24 -16 -24 -16 -3 -11 13
3 41 24 64 46 l41 42 24 -28 c13 -16 24 -37 24 -49 0 -17 -4 -19 -25 -14 -48
12 -84 -26 -50 -54 19 -16 80 -5 104 19 10 10 40 21 66 24 27 4 64 16 83 27
l34 20 31 -26 c26 -22 38 -25 78 -22 27 3 60 13 74 22 22 15 26 23 21 47 -6
30 4 36 39 23 13 -5 15 -15 9 -49 -5 -39 -4 -43 18 -48 12 -3 39 -2 58 2 29 6
39 4 57 -16 12 -13 33 -23 45 -23 27 0 68 26 68 43 0 8 16 11 51 8 36 -2 55 2
68 13 18 16 19 15 30 -14 14 -42 31 -35 60 25 l25 48 17 -40 c9 -22 25 -43 34
-47 37 -14 111 24 162 83 l23 26 25 -28 c14 -15 25 -37 25 -49 0 -17 -4 -19
-25 -14 -29 7 -65 -8 -65 -28 0 -41 81 -45 121 -5 10 10 30 19 43 19 14 0 36
4 49 9 21 8 26 6 30 -11 5 -17 11 -19 34 -14 15 4 59 11 96 16 38 5 79 15 91
23 20 13 24 12 51 -10 25 -22 35 -24 74 -19 25 3 62 14 82 24 36 18 37 18 65
-6 48 -42 138 -18 209 55 l37 38 24 -28 c13 -16 24 -37 24 -49 0 -17 -4 -19
-25 -14 -48 12 -84 -26 -50 -54 19 -16 80 -5 104 19 10 10 42 21 72 25 30 4
68 16 85 27 l32 19 9 -37 c13 -57 35 -53 53 9 15 52 32 68 38 35 2 -10 -3 -17
-12 -17 -20 0 -21 -14 -1 -30 9 -7 38 -11 77 -8 47 2 66 -1 75 -12 9 -12 17
-13 45 -2 19 6 52 12 74 12 21 1 57 9 79 20 58 28 58 29 104 -235 5 -31 11
-40 26 -40 17 0 20 7 19 45 -2 57 13 232 22 253 9 24 31 21 50 -8 16 -24 15
-26 -7 -45 -21 -17 -22 -21 -9 -30 21 -14 36 -12 54 6 23 23 19 58 -10 93 -49
59 -83 33 -105 -78 l-12 -65 -17 73 c-22 93 -31 102 -70 72 -66 -48 -162 -63
-140 -21 7 13 7 21 0 25 -15 9 -38 -12 -42 -38 -5 -35 -34 -28 -30 7 5 47 21
70 38 55 11 -9 14 -8 14 5 0 9 -7 19 -17 23 -20 8 -73 -48 -73 -76 0 -13 -9
-21 -30 -26 -46 -10 -68 2 -72 37 -2 17 -11 36 -21 42 -15 9 -22 6 -42 -18
-20 -26 -23 -27 -27 -10 -2 10 4 35 14 54 24 47 23 116 -3 160 -38 64 -68 76
-95 35z m66 -27 c26 -43 34 -106 19 -143 l-12 -30 -19 60 c-39 125 -33 187 12
113z m-2177 -18 c3 -13 0 -20 -9 -20 -8 0 -14 9 -14 20 0 11 4 20 9 20 5 0 11
-9 14 -20z m1437 -51 c11 -39 6 -88 -10 -119 -7 -12 -11 -9 -19 13 -12 31 -15
130 -4 140 14 14 23 6 33 -34z m220 0 c11 -39 6 -88 -10 -119 -7 -12 -11 -9
-19 13 -12 31 -15 130 -4 140 14 14 23 6 33 -34z m-1644 -14 c8 -33 -5 -105
-16 -85 -4 8 -10 36 -13 63 -5 37 -4 47 8 47 8 0 17 -11 21 -25z m430 -181
c15 -23 16 -27 2 -41 -12 -12 -20 -13 -37 -4 -23 13 -28 40 -9 59 17 17 26 15
44 -14z m-688 -36 c-7 -20 -48 -23 -48 -4 0 11 9 16 26 16 16 0 24 -5 22 -12z
m1230 0 c-7 -20 -48 -23 -48 -4 0 11 9 16 26 16 16 0 24 -5 22 -12z m940 0
c-7 -20 -48 -23 -48 -4 0 11 9 16 26 16 16 0 24 -5 22 -12z m907 -8 c-3 -5
-11 -10 -16 -10 -6 0 -7 5 -4 10 3 6 11 10 16 10 6 0 7 -4 4 -10z"/>
<path d="M3974 579 c-4 -7 -10 -26 -13 -43 -5 -21 -14 -32 -31 -37 -25 -7 -25
-7 3 -8 25 -1 27 -4 27 -40 0 -21 7 -58 15 -81 8 -23 15 -44 15 -46 0 -3 -15
-13 -32 -24 -39 -24 -105 -26 -135 -5 -21 15 -21 16 -5 45 13 22 14 34 6 47
-16 26 -39 36 -66 30 -33 -9 -41 -40 -22 -85 8 -19 13 -36 12 -37 -2 -1 -12
-7 -23 -13 -25 -14 -1 -16 26 -2 14 8 27 7 48 -5 43 -22 101 -19 156 9 l48 25
29 -25 c33 -27 92 -33 122 -11 15 11 12 12 -23 9 -33 -3 -45 1 -67 23 -21 21
-25 32 -20 57 3 17 6 52 6 79 l0 48 53 4 52 3 -50 2 c-49 2 -51 3 -70 45 -20
42 -47 58 -61 36z m49 -49 c3 -13 0 -20 -9 -20 -8 0 -14 9 -14 20 0 11 4 20 9
20 5 0 11 -9 14 -20z m13 -65 c8 -33 -5 -105 -16 -85 -4 8 -10 36 -13 63 -5
37 -4 47 8 47 8 0 17 -11 21 -25z m-236 -88 c11 -20 12 -29 3 -38 -18 -18 -43
7 -43 43 0 36 18 33 40 -5z"/>
<path d="M82 520 c-48 -29 -72 -75 -72 -138 0 -61 17 -99 60 -135 61 -51 141
-60 216 -22 75 37 107 108 81 182 -13 37 -12 40 11 57 30 23 22 33 -11 12 -22
-15 -25 -15 -43 5 -10 12 -31 27 -46 35 -54 28 -117 10 -102 -29 6 -18 73 -47
108 -47 46 0 63 -107 26 -168 -51 -84 -186 -58 -235 45 -42 89 -26 166 43 202
27 15 31 20 17 21 -11 0 -35 -9 -53 -20z m185 -35 c15 -13 22 -25 15 -25 -19
0 -72 29 -72 40 0 18 28 10 57 -15z"/>
<path d="M2000 455 c0 -8 5 -15 10 -15 6 0 10 7 10 15 0 8 -4 15 -10 15 -5 0
-10 -7 -10 -15z"/>
<path d="M2060 450 c0 -5 7 -10 16 -10 8 0 12 5 9 10 -3 6 -10 10 -16 10 -5 0
-9 -4 -9 -10z"/>
</g>
</svg>
